<svg width="102" height="108" viewBox="0 0 102 108" fill="none" xmlns="http://www.w3.org/2000/svg">
<path d="M48.0879 11.1865C49.785 9.71524 52.3073 9.72061 53.998 11.1992L93.6621 45.8906C94.6391 46.7451 95.2002 47.9794 95.2002 49.2773V97C95.2002 99.4852 93.1854 101.5 90.7002 101.5H11C8.51472 101.5 6.5 99.4853 6.5 97V49.3057C6.5 48.0011 7.06614 46.76 8.05176 45.9053L48.0879 11.1865Z" stroke="white" stroke-width="13" stroke-linejoin="bevel"/>
<path d="M6.30002 101.7L38.2007 61.0376L49.6785 81.3688C49.6785 81.3688 64.38 66.3338 73.8 56.7" stroke="white" stroke-width="10" stroke-linejoin="round"/>
<path d="M74.7 55.8L74.7 72" stroke="white" stroke-width="10" stroke-linecap="round" stroke-linejoin="round"/>
<path d="M74.6731 55.8L57.6 57.6" stroke="white" stroke-width="10" stroke-linecap="round" stroke-linejoin="round"/>
</svg>
